<svg width="32" height="32" viewBox="0 0 32 32" fill="none" xmlns="http://www.w3.org/2000/svg">
<g id="safari-pinned-tab">
<path id="&#238;&#171;&#142;" d="M6.79415 7.5C6.57615 7.5 6.38929 7.57903 6.23357 7.7371C6.07786 7.89517 6 8.08484 6 8.30614C6 8.52743 6.07786 8.71711 6.23357 8.87517C6.38929 9.03324 6.57615 9.11227 6.79415 9.11227H8.33574L8.70946 10.8194L10.2043 17.9086L10.835 20.8013C10.9907 20.6906 11.162 20.6037 11.3488 20.5404C11.5513 20.4772 11.7615 20.4456 11.9795 20.4456C12.0418 20.4456 12.1119 20.4535 12.1897 20.4693C12.2676 20.4693 12.3376 20.4772 12.3999 20.493L11.9795 18.5251H20.3181C20.9877 18.5251 21.5716 18.3196 22.0699 17.9086C22.5838 17.4819 22.9108 16.9444 23.0509 16.2964L23.9619 12.0286C24.0709 11.4596 23.9463 10.9537 23.5881 10.5112C23.23 10.0528 22.7706 9.82357 22.21 9.82357H10.1343L9.76054 8.14017C9.71383 7.95049 9.6204 7.80033 9.48025 7.68968C9.34011 7.56323 9.17661 7.5 8.98975 7.5H6.79415ZM13.7079 21.4651H19.2203C19.1269 21.6074 19.0568 21.7655 19.0101 21.9393C18.9634 22.1132 18.94 22.295 18.94 22.4847C18.94 22.5795 18.9478 22.6822 18.9634 22.7929C18.9789 22.8877 19.0023 22.9826 19.0334 23.0774H13.8714C13.7469 23.4884 13.5055 23.8282 13.1474 24.0969C12.8048 24.3656 12.4155 24.5 11.9795 24.5C11.4189 24.5 10.944 24.3024 10.5547 23.9073C10.1654 23.5121 9.97076 23.0379 9.97076 22.4847C9.97076 21.9156 10.1654 21.4335 10.5547 21.0384C10.944 20.6432 11.4189 20.4456 11.9795 20.4456C12.3376 20.4456 12.6724 20.5404 12.9839 20.7301C13.2953 20.9198 13.5367 21.1648 13.7079 21.4651ZM11.6291 16.9128L10.4613 11.4596H22.21C22.2723 11.4596 22.319 11.4833 22.3502 11.5307C22.3969 11.5781 22.4125 11.6334 22.3969 11.6967L21.486 15.9644C21.4392 16.2331 21.2991 16.4623 21.0655 16.652C20.8475 16.8259 20.5984 16.9128 20.3181 16.9128H11.6291ZM22.9341 22.4847C22.9341 23.0379 22.7395 23.5121 22.3502 23.9073C21.9609 24.3024 21.4938 24.5 20.9487 24.5C20.3882 24.5 19.9132 24.3024 19.5239 23.9073C19.1347 23.5121 18.94 23.0379 18.94 22.4847C18.94 21.9156 19.1347 21.4335 19.5239 21.0384C19.9132 20.6432 20.3882 20.4456 20.9487 20.4456C21.4938 20.4456 21.9609 20.6432 22.3502 21.0384C22.7395 21.4335 22.9341 21.9156 22.9341 22.4847Z" fill="white"/>
</g>
</svg>
