<svg width="16" height="16" viewBox="0 0 16 16" fill="none" xmlns="http://www.w3.org/2000/svg">
<g id="safari-pinned-tab">
<path id="&#238;&#171;&#142;" d="M0.661793 1C0.480125 1 0.324408 1.06509 0.194645 1.19526C0.0648817 1.32543 0 1.48164 0 1.66388C0 1.84612 0.0648817 2.00232 0.194645 2.1325C0.324408 2.26267 0.480125 2.32775 0.661793 2.32775H1.94645L2.25788 3.73361L3.50361 9.57183L4.02915 11.954C4.15892 11.8629 4.30166 11.7913 4.45737 11.7392C4.62606 11.6871 4.80125 11.6611 4.98291 11.6611C5.03482 11.6611 5.09321 11.6676 5.15809 11.6806C5.22298 11.6806 5.28137 11.6871 5.33328 11.7001L4.98291 10.0795H11.9317C12.4897 10.0795 12.9763 9.91027 13.3916 9.57183C13.8198 9.22036 14.0923 8.77778 14.2091 8.24407L14.9682 4.72943C15.059 4.26081 14.9552 3.84426 14.6568 3.47978C14.3583 3.10228 13.9755 2.91353 13.5084 2.91353H3.44522L3.13379 1.5272C3.09486 1.37099 3.017 1.24733 2.90021 1.15621C2.78342 1.05207 2.64717 1 2.49146 1H0.661793ZM6.42329 12.5007H11.0169C10.9391 12.6179 10.8807 12.748 10.8417 12.8912C10.8028 13.0344 10.7833 13.1841 10.7833 13.3403C10.7833 13.4184 10.7898 13.503 10.8028 13.5941C10.8158 13.6722 10.8352 13.7503 10.8612 13.8285H6.55954C6.45573 14.1669 6.2546 14.4468 5.95614 14.6681C5.67066 14.8894 5.34625 15 4.98291 15C4.51577 15 4.11999 14.8373 3.79558 14.5119C3.47117 14.1864 3.30897 13.7959 3.30897 13.3403C3.30897 12.8717 3.47117 12.4747 3.79558 12.1492C4.11999 11.8238 4.51577 11.6611 4.98291 11.6611C5.28137 11.6611 5.56036 11.7392 5.81989 11.8954C6.07942 12.0516 6.28055 12.2534 6.42329 12.5007ZM4.69095 8.75174L3.71772 4.26081H13.5084C13.5603 4.26081 13.5992 4.28033 13.6252 4.31939C13.6641 4.35844 13.6771 4.404 13.6641 4.45607L12.905 7.97071C12.866 8.192 12.7493 8.38075 12.5546 8.53696C12.3729 8.68015 12.1653 8.75174 11.9317 8.75174H4.69095ZM14.1118 13.3403C14.1118 13.7959 13.9496 14.1864 13.6252 14.5119C13.3007 14.8373 12.9115 15 12.4573 15C11.9901 15 11.5944 14.8373 11.27 14.5119C10.9455 14.1864 10.7833 13.7959 10.7833 13.3403C10.7833 12.8717 10.9455 12.4747 11.27 12.1492C11.5944 11.8238 11.9901 11.6611 12.4573 11.6611C12.9115 11.6611 13.3007 11.8238 13.6252 12.1492C13.9496 12.4747 14.1118 12.8717 14.1118 13.3403Z" fill="black"/>
</g>
</svg>
